<svg xmlns="http://www.w3.org/2000/svg" xmlns:xlink="http://www.w3.org/1999/xlink" width="320" zoomAndPan="magnify" viewBox="0 0 240 239.999995" height="320" preserveAspectRatio="xMidYMid meet" version="1.0"><defs><clipPath id="e010f5a321"><path d="M 56.296875 56.296875 L 183.703125 56.296875 L 183.703125 183.703125 L 56.296875 183.703125 Z M 56.296875 56.296875 " clip-rule="nonzero"/></clipPath><clipPath id="39449b5ac5"><path d="M 120 56.296875 C 84.816406 56.296875 56.296875 84.816406 56.296875 120 C 56.296875 155.183594 84.816406 183.703125 120 183.703125 C 155.183594 183.703125 183.703125 155.183594 183.703125 120 C 183.703125 84.816406 155.183594 56.296875 120 56.296875 Z M 120 56.296875 " clip-rule="nonzero"/></clipPath><clipPath id="c020f1adad"><path d="M 0.296875 0.296875 L 127.703125 0.296875 L 127.703125 127.703125 L 0.296875 127.703125 Z M 0.296875 0.296875 " clip-rule="nonzero"/></clipPath><clipPath id="0416393880"><path d="M 64 0.296875 C 28.816406 0.296875 0.296875 28.816406 0.296875 64 C 0.296875 99.183594 28.816406 127.703125 64 127.703125 C 99.183594 127.703125 127.703125 99.183594 127.703125 64 C 127.703125 28.816406 99.183594 0.296875 64 0.296875 Z M 64 0.296875 " clip-rule="nonzero"/></clipPath><clipPath id="1569afa8ed"><rect x="0" width="128" y="0" height="128"/></clipPath><clipPath id="1864e35408"><path d="M 180 41 L 210 41 L 210 71 L 180 71 Z M 180 41 " clip-rule="nonzero"/></clipPath><clipPath id="deec68bf8e"><path d="M 27.636719 32.625 L 27.636719 207.375 C 27.636719 215.660156 34.351562 222.375 42.636719 222.375 L 197.363281 222.375 C 205.648438 222.375 212.363281 215.660156 212.363281 207.375 L 212.363281 32.625 C 212.363281 24.339844 205.648438 17.625 197.363281 17.625 L 42.636719 17.625 C 34.351562 17.625 27.636719 24.339844 27.636719 32.625 Z M 27.636719 32.625 " clip-rule="nonzero"/></clipPath><clipPath id="2143338a4c"><path d="M 27.636719 59 L 158 59 L 158 222.375 L 27.636719 222.375 Z M 27.636719 59 " clip-rule="nonzero"/></clipPath><clipPath id="01237bb2fb"><path d="M 27.636719 32.625 L 27.636719 207.375 C 27.636719 215.660156 34.351562 222.375 42.636719 222.375 L 197.363281 222.375 C 205.648438 222.375 212.363281 215.660156 212.363281 207.375 L 212.363281 32.625 C 212.363281 24.339844 205.648438 17.625 197.363281 17.625 L 42.636719 17.625 C 34.351562 17.625 27.636719 24.339844 27.636719 32.625 Z M 27.636719 32.625 " clip-rule="nonzero"/></clipPath><clipPath id="aec6645b7d"><path d="M 180 81 L 208 81 L 208 104 L 180 104 Z M 180 81 " clip-rule="nonzero"/></clipPath><clipPath id="dc37a61e81"><path d="M 27.636719 32.625 L 27.636719 207.375 C 27.636719 215.660156 34.351562 222.375 42.636719 222.375 L 197.363281 222.375 C 205.648438 222.375 212.363281 215.660156 212.363281 207.375 L 212.363281 32.625 C 212.363281 24.339844 205.648438 17.625 197.363281 17.625 L 42.636719 17.625 C 34.351562 17.625 27.636719 24.339844 27.636719 32.625 Z M 27.636719 32.625 " clip-rule="nonzero"/></clipPath><clipPath id="9679e16b3a"><path d="M 180 108 L 202 108 L 202 131 L 180 131 Z M 180 108 " clip-rule="nonzero"/></clipPath><clipPath id="fd2bd9cbf0"><path d="M 27.636719 32.625 L 27.636719 207.375 C 27.636719 215.660156 34.351562 222.375 42.636719 222.375 L 197.363281 222.375 C 205.648438 222.375 212.363281 215.660156 212.363281 207.375 L 212.363281 32.625 C 212.363281 24.339844 205.648438 17.625 197.363281 17.625 L 42.636719 17.625 C 34.351562 17.625 27.636719 24.339844 27.636719 32.625 Z M 27.636719 32.625 " clip-rule="nonzero"/></clipPath><clipPath id="601622cc45"><path d="M 180 134 L 196 134 L 196 158 L 180 158 Z M 180 134 " clip-rule="nonzero"/></clipPath><clipPath id="c8b994f212"><path d="M 27.636719 32.625 L 27.636719 207.375 C 27.636719 215.660156 34.351562 222.375 42.636719 222.375 L 197.363281 222.375 C 205.648438 222.375 212.363281 215.660156 212.363281 207.375 L 212.363281 32.625 C 212.363281 24.339844 205.648438 17.625 197.363281 17.625 L 42.636719 17.625 C 34.351562 17.625 27.636719 24.339844 27.636719 32.625 Z M 27.636719 32.625 " clip-rule="nonzero"/></clipPath><clipPath id="9bca495655"><path d="M 90 17.625 L 177 17.625 L 177 186 L 90 186 Z M 90 17.625 " clip-rule="nonzero"/></clipPath><clipPath id="97a860c364"><path d="M 27.636719 32.625 L 27.636719 207.375 C 27.636719 215.660156 34.351562 222.375 42.636719 222.375 L 197.363281 222.375 C 205.648438 222.375 212.363281 215.660156 212.363281 207.375 L 212.363281 32.625 C 212.363281 24.339844 205.648438 17.625 197.363281 17.625 L 42.636719 17.625 C 34.351562 17.625 27.636719 24.339844 27.636719 32.625 Z M 27.636719 32.625 " clip-rule="nonzero"/></clipPath></defs><g clip-path="url(#e010f5a321)"><g clip-path="url(#39449b5ac5)"><g transform="matrix(1, 0, 0, 1, 56, 56)"><g clip-path="url(#1569afa8ed)"><g clip-path="url(#c020f1adad)"><g clip-path="url(#0416393880)"><path fill="#ffffff" d="M 0.296875 0.296875 L 127.703125 0.296875 L 127.703125 127.703125 L 0.296875 127.703125 Z M 0.296875 0.296875 " fill-opacity="1" fill-rule="nonzero"/></g></g></g></g></g></g><g clip-path="url(#1864e35408)"><g clip-path="url(#deec68bf8e)"><path fill="#1a5dfc" d="M 209.40625 49.484375 C 207.492188 43.457031 201.070312 40.132812 195.058594 42.054688 L 180.792969 46.621094 L 180.792969 70.664062 L 202.003906 63.875 C 208.007812 61.953125 211.324219 55.507812 209.40625 49.484375 Z M 209.40625 49.484375 " fill-opacity="1" fill-rule="nonzero"/></g></g><g clip-path="url(#2143338a4c)"><g clip-path="url(#01237bb2fb)"><path fill="#1a5dfc" d="M 84.839844 171.429688 L 84.839844 159.453125 L 84.800781 159.429688 C 84.800781 159.429688 84.824219 159.28125 84.839844 158.980469 L 84.839844 157.324219 C 84.695312 153.597656 83.597656 144.996094 77.371094 131.828125 C 74.207031 125.148438 68.289062 119.226562 65.355469 116.550781 L 83.328125 80.570312 C 86.699219 73.300781 83.574219 64.667969 76.347656 61.273438 C 69.117188 57.886719 66.6875 60.585938 62.300781 68.292969 L 33.078125 116.488281 L 32.929688 116.832031 L 27.917969 124.988281 L 38.339844 189.5625 L 2.761719 249.257812 L 91.753906 249.257812 L 109.199219 220.277344 C 116.96875 218.898438 134.167969 213.949219 152.816406 196.355469 C 154.652344 194.625 155.953125 192.726562 157.53125 190.308594 L 102.929688 190.308594 C 92.726562 190.308594 84.839844 181.691406 84.839844 171.429688 Z M 84.839844 171.429688 " fill-opacity="1" fill-rule="nonzero"/></g></g><g clip-path="url(#aec6645b7d)"><g clip-path="url(#dc37a61e81)"><path fill="#1a5dfc" d="M 196.582031 81.128906 L 180.792969 81.128906 L 180.792969 103.554688 L 196.582031 103.554688 C 202.726562 103.554688 207.707031 98.53125 207.707031 92.339844 C 207.707031 86.148438 202.730469 81.128906 196.582031 81.128906 Z M 196.582031 81.128906 " fill-opacity="1" fill-rule="nonzero"/></g></g><g clip-path="url(#9679e16b3a)"><g clip-path="url(#fd2bd9cbf0)"><path fill="#1a5dfc" d="M 190.261719 108.039062 L 180.796875 108.039062 L 180.796875 130.464844 L 190.261719 130.464844 C 196.59375 130.464844 201.730469 125.445312 201.730469 119.253906 C 201.730469 113.066406 196.59375 108.039062 190.261719 108.039062 Z M 190.261719 108.039062 " fill-opacity="1" fill-rule="nonzero"/></g></g><g clip-path="url(#601622cc45)"><g clip-path="url(#c8b994f212)"><path fill="#1a5dfc" d="M 184.445312 134.953125 L 180.792969 134.953125 L 180.792969 157.378906 L 184.445312 157.378906 C 190.683594 157.378906 195.746094 152.355469 195.746094 146.164062 C 195.746094 139.976562 190.6875 134.953125 184.445312 134.953125 Z M 184.445312 134.953125 " fill-opacity="1" fill-rule="nonzero"/></g></g><g clip-path="url(#9bca495655)"><g clip-path="url(#97a860c364)"><path fill="#1a5dfc" d="M 169.253906 161.253906 L 98.128906 161.253906 L 98.128906 30.292969 L 169.253906 30.292969 Z M 133.324219 177.707031 C 130.65625 177.707031 128.496094 175.523438 128.496094 172.839844 C 128.496094 170.15625 130.65625 167.980469 133.324219 167.980469 C 135.988281 167.980469 138.148438 170.15625 138.148438 172.839844 C 138.148438 175.523438 135.988281 177.707031 133.324219 177.707031 Z M 126.277344 21.699219 L 141.625 21.699219 C 142.648438 21.699219 143.488281 22.535156 143.488281 23.566406 C 143.488281 24.597656 142.648438 25.433594 141.625 25.433594 L 126.277344 25.433594 C 125.25 25.433594 124.421875 24.597656 124.421875 23.566406 C 124.421875 22.535156 125.253906 21.699219 126.277344 21.699219 Z M 162.953125 17.585938 L 103.691406 17.585938 C 96.320312 17.585938 90.339844 23.613281 90.339844 31.039062 L 90.339844 171.578125 C 90.339844 179.015625 96.320312 185.042969 103.691406 185.042969 L 162.953125 185.042969 C 170.328125 185.042969 176.308594 179.015625 176.308594 171.578125 L 176.308594 31.039062 C 176.308594 23.613281 170.320312 17.585938 162.953125 17.585938 Z M 162.953125 17.585938 " fill-opacity="1" fill-rule="evenodd"/></g></g></svg>