<svg xmlns="http://www.w3.org/2000/svg" xmlns:xlink="http://www.w3.org/1999/xlink" width="320" zoomAndPan="magnify" viewBox="0 0 240 239.999995" height="320" preserveAspectRatio="xMidYMid meet" version="1.0"><defs><clipPath id="cdd354adc7"><path d="M 18.484375 18.484375 L 221.515625 18.484375 L 221.515625 221.515625 L 18.484375 221.515625 Z M 18.484375 18.484375 " clip-rule="nonzero"/></clipPath><clipPath id="8fdf7e39a1"><path d="M 120 18.484375 C 63.933594 18.484375 18.484375 63.933594 18.484375 120 C 18.484375 176.066406 63.933594 221.515625 120 221.515625 C 176.066406 221.515625 221.515625 176.066406 221.515625 120 C 221.515625 63.933594 176.066406 18.484375 120 18.484375 Z M 120 18.484375 " clip-rule="nonzero"/></clipPath><clipPath id="4fd9b7633c"><path d="M 0.484375 0.484375 L 203.515625 0.484375 L 203.515625 203.515625 L 0.484375 203.515625 Z M 0.484375 0.484375 " clip-rule="nonzero"/></clipPath><clipPath id="48cb28dfed"><path d="M 102 0.484375 C 45.933594 0.484375 0.484375 45.933594 0.484375 102 C 0.484375 158.066406 45.933594 203.515625 102 203.515625 C 158.066406 203.515625 203.515625 158.066406 203.515625 102 C 203.515625 45.933594 158.066406 0.484375 102 0.484375 Z M 102 0.484375 " clip-rule="nonzero"/></clipPath><clipPath id="ba44b783b9"><rect x="0" width="204" y="0" height="204"/></clipPath><clipPath id="55380b8973"><path d="M 79.234375 91 L 140 91 L 140 165 L 79.234375 165 Z M 79.234375 91 " clip-rule="nonzero"/></clipPath><clipPath id="24819f59d5"><path d="M 113 75.140625 L 147 75.140625 L 147 140 L 113 140 Z M 113 75.140625 " clip-rule="nonzero"/></clipPath></defs><rect x="-24" width="288" fill="#ffffff" y="-23.999999" height="287.999994" fill-opacity="1"/><rect x="-24" width="288" fill="#ffffff" y="-23.999999" height="287.999994" fill-opacity="1"/><g clip-path="url(#cdd354adc7)"><g clip-path="url(#8fdf7e39a1)"><g transform="matrix(1, 0, 0, 1, 18, 18)"><g clip-path="url(#ba44b783b9)"><g clip-path="url(#4fd9b7633c)"><g clip-path="url(#48cb28dfed)"><path fill="#ffffff" d="M 0.484375 0.484375 L 203.515625 0.484375 L 203.515625 203.515625 L 0.484375 203.515625 Z M 0.484375 0.484375 " fill-opacity="1" fill-rule="nonzero"/></g></g></g></g></g></g><path fill="#1a5dfc" d="M 159.617188 87.480469 C 158.878906 85.144531 156.390625 83.859375 154.0625 84.601562 L 148.535156 86.371094 L 148.535156 95.683594 L 156.753906 93.054688 C 159.078125 92.308594 160.363281 89.8125 159.617188 87.480469 Z M 159.617188 87.480469 " fill-opacity="1" fill-rule="nonzero"/><g clip-path="url(#55380b8973)"><path fill="#1a5dfc" d="M 111.371094 134.714844 L 111.371094 130.074219 L 111.355469 130.066406 C 111.355469 130.066406 111.363281 130.007812 111.371094 129.890625 L 111.371094 129.25 C 111.316406 127.808594 110.890625 124.476562 108.476562 119.375 C 107.253906 116.785156 104.960938 114.492188 103.824219 113.457031 L 110.785156 99.519531 C 112.089844 96.707031 110.878906 93.359375 108.082031 92.046875 C 105.28125 90.734375 104.339844 91.78125 102.640625 94.765625 L 91.320312 113.433594 L 91.265625 113.566406 L 89.324219 116.726562 L 93.359375 141.738281 L 79.578125 164.859375 L 114.046875 164.859375 L 120.804688 153.632812 C 123.816406 153.097656 130.476562 151.183594 137.699219 144.367188 C 138.410156 143.699219 138.914062 142.960938 139.527344 142.027344 L 118.378906 142.027344 C 114.425781 142.027344 111.371094 138.6875 111.371094 134.714844 Z M 111.371094 134.714844 " fill-opacity="1" fill-rule="nonzero"/></g><path fill="#1a5dfc" d="M 154.652344 99.738281 L 148.535156 99.738281 L 148.535156 108.421875 L 154.652344 108.421875 C 157.03125 108.421875 158.960938 106.476562 158.960938 104.078125 C 158.960938 101.683594 157.03125 99.738281 154.652344 99.738281 Z M 154.652344 99.738281 " fill-opacity="1" fill-rule="nonzero"/><path fill="#1a5dfc" d="M 152.203125 110.160156 L 148.539062 110.160156 L 148.539062 118.847656 L 152.203125 118.847656 C 154.65625 118.847656 156.644531 116.902344 156.644531 114.503906 C 156.644531 112.105469 154.65625 110.160156 152.203125 110.160156 Z M 152.203125 110.160156 " fill-opacity="1" fill-rule="nonzero"/><path fill="#1a5dfc" d="M 149.949219 120.585938 L 148.535156 120.585938 L 148.535156 129.269531 L 149.949219 129.269531 C 152.367188 129.269531 154.328125 127.324219 154.328125 124.929688 C 154.328125 122.53125 152.367188 120.585938 149.949219 120.585938 Z M 149.949219 120.585938 " fill-opacity="1" fill-rule="nonzero"/><g clip-path="url(#24819f59d5)"><path fill="#1a5dfc" d="M 144.066406 130.769531 L 116.519531 130.769531 L 116.519531 80.046875 L 144.066406 80.046875 Z M 130.148438 137.144531 C 129.117188 137.144531 128.28125 136.296875 128.28125 135.261719 C 128.28125 134.21875 129.117188 133.378906 130.148438 133.378906 C 131.179688 133.378906 132.019531 134.21875 132.019531 135.261719 C 132.019531 136.300781 131.179688 137.144531 130.148438 137.144531 Z M 127.421875 76.71875 L 133.363281 76.71875 C 133.761719 76.71875 134.085938 77.042969 134.085938 77.441406 C 134.085938 77.839844 133.761719 78.164062 133.363281 78.164062 L 127.421875 78.164062 C 127.023438 78.164062 126.703125 77.839844 126.703125 77.441406 C 126.703125 77.042969 127.023438 76.71875 127.421875 76.71875 Z M 141.625 75.125 L 118.671875 75.125 C 115.816406 75.125 113.5 77.457031 113.5 80.335938 L 113.5 134.769531 C 113.5 137.652344 115.816406 139.984375 118.671875 139.984375 L 141.625 139.984375 C 144.484375 139.984375 146.800781 137.652344 146.800781 134.769531 L 146.800781 80.335938 C 146.800781 77.457031 144.480469 75.125 141.625 75.125 Z M 141.625 75.125 " fill-opacity="1" fill-rule="evenodd"/></g></svg>