<svg xmlns="http://www.w3.org/2000/svg" xmlns:xlink="http://www.w3.org/1999/xlink" width="512" zoomAndPan="magnify" viewBox="0 0 240 239.999995" height="512" preserveAspectRatio="xMidYMid meet" version="1.0"><defs><clipPath id="20c543ad9c"><path d="M 56.296875 56.296875 L 183.703125 56.296875 L 183.703125 183.703125 L 56.296875 183.703125 Z M 56.296875 56.296875 " clip-rule="nonzero"/></clipPath><clipPath id="2e1547507a"><path d="M 120 56.296875 C 84.816406 56.296875 56.296875 84.816406 56.296875 120 C 56.296875 155.183594 84.816406 183.703125 120 183.703125 C 155.183594 183.703125 183.703125 155.183594 183.703125 120 C 183.703125 84.816406 155.183594 56.296875 120 56.296875 Z M 120 56.296875 " clip-rule="nonzero"/></clipPath><clipPath id="8758be6489"><path d="M 0.296875 0.296875 L 127.703125 0.296875 L 127.703125 127.703125 L 0.296875 127.703125 Z M 0.296875 0.296875 " clip-rule="nonzero"/></clipPath><clipPath id="c4b7005c51"><path d="M 64 0.296875 C 28.816406 0.296875 0.296875 28.816406 0.296875 64 C 0.296875 99.183594 28.816406 127.703125 64 127.703125 C 99.183594 127.703125 127.703125 99.183594 127.703125 64 C 127.703125 28.816406 99.183594 0.296875 64 0.296875 Z M 64 0.296875 " clip-rule="nonzero"/></clipPath><clipPath id="f08506cef7"><rect x="0" width="128" y="0" height="128"/></clipPath><clipPath id="95135aa5b6"><path d="M 150 80 L 165 80 L 165 96 L 150 96 Z M 150 80 " clip-rule="nonzero"/></clipPath><clipPath id="68ca59b9b5"><path d="M 73.824219 83.816406 L 73.824219 156.183594 C 73.824219 164.464844 80.539062 171.183594 88.824219 171.183594 L 151.175781 171.183594 C 159.460938 171.183594 166.175781 164.464844 166.175781 156.183594 L 166.175781 83.816406 C 166.175781 75.535156 159.460938 68.816406 151.175781 68.816406 L 88.824219 68.816406 C 80.539062 68.816406 73.824219 75.535156 73.824219 83.816406 Z M 73.824219 83.816406 " clip-rule="nonzero"/></clipPath><clipPath id="1b73450341"><path d="M 73.824219 89 L 139 89 L 139 170.816406 L 73.824219 170.816406 Z M 73.824219 89 " clip-rule="nonzero"/></clipPath><clipPath id="1af33cfb8c"><path d="M 73.824219 83.816406 L 73.824219 156.183594 C 73.824219 164.464844 80.539062 171.183594 88.824219 171.183594 L 151.175781 171.183594 C 159.460938 171.183594 166.175781 164.464844 166.175781 156.183594 L 166.175781 83.816406 C 166.175781 75.535156 159.460938 68.816406 151.175781 68.816406 L 88.824219 68.816406 C 80.539062 68.816406 73.824219 75.535156 73.824219 83.816406 Z M 73.824219 83.816406 " clip-rule="nonzero"/></clipPath><clipPath id="33d08f250a"><path d="M 150 100 L 164 100 L 164 112 L 150 112 Z M 150 100 " clip-rule="nonzero"/></clipPath><clipPath id="e434beae22"><path d="M 73.824219 83.816406 L 73.824219 156.183594 C 73.824219 164.464844 80.539062 171.183594 88.824219 171.183594 L 151.175781 171.183594 C 159.460938 171.183594 166.175781 164.464844 166.175781 156.183594 L 166.175781 83.816406 C 166.175781 75.535156 159.460938 68.816406 151.175781 68.816406 L 88.824219 68.816406 C 80.539062 68.816406 73.824219 75.535156 73.824219 83.816406 Z M 73.824219 83.816406 " clip-rule="nonzero"/></clipPath><clipPath id="79f7691d18"><path d="M 150 114 L 161 114 L 161 126 L 150 126 Z M 150 114 " clip-rule="nonzero"/></clipPath><clipPath id="f861edfccd"><path d="M 73.824219 83.816406 L 73.824219 156.183594 C 73.824219 164.464844 80.539062 171.183594 88.824219 171.183594 L 151.175781 171.183594 C 159.460938 171.183594 166.175781 164.464844 166.175781 156.183594 L 166.175781 83.816406 C 166.175781 75.535156 159.460938 68.816406 151.175781 68.816406 L 88.824219 68.816406 C 80.539062 68.816406 73.824219 75.535156 73.824219 83.816406 Z M 73.824219 83.816406 " clip-rule="nonzero"/></clipPath><clipPath id="4a63b4d13e"><path d="M 150 127 L 158 127 L 158 139 L 150 139 Z M 150 127 " clip-rule="nonzero"/></clipPath><clipPath id="f742d0d907"><path d="M 73.824219 83.816406 L 73.824219 156.183594 C 73.824219 164.464844 80.539062 171.183594 88.824219 171.183594 L 151.175781 171.183594 C 159.460938 171.183594 166.175781 164.464844 166.175781 156.183594 L 166.175781 83.816406 C 166.175781 75.535156 159.460938 68.816406 151.175781 68.816406 L 88.824219 68.816406 C 80.539062 68.816406 73.824219 75.535156 73.824219 83.816406 Z M 73.824219 83.816406 " clip-rule="nonzero"/></clipPath><clipPath id="f3ea82f5a0"><path d="M 105 68.816406 L 149 68.816406 L 149 153 L 105 153 Z M 105 68.816406 " clip-rule="nonzero"/></clipPath><clipPath id="ecfa794e7f"><path d="M 73.824219 83.816406 L 73.824219 156.183594 C 73.824219 164.464844 80.539062 171.183594 88.824219 171.183594 L 151.175781 171.183594 C 159.460938 171.183594 166.175781 164.464844 166.175781 156.183594 L 166.175781 83.816406 C 166.175781 75.535156 159.460938 68.816406 151.175781 68.816406 L 88.824219 68.816406 C 80.539062 68.816406 73.824219 75.535156 73.824219 83.816406 Z M 73.824219 83.816406 " clip-rule="nonzero"/></clipPath></defs><g clip-path="url(#20c543ad9c)"><g clip-path="url(#2e1547507a)"><g transform="matrix(1, 0, 0, 1, 56, 56)"><g clip-path="url(#f08506cef7)"><g clip-path="url(#8758be6489)"><g clip-path="url(#c4b7005c51)"><path fill="#ffffff" d="M 0.296875 0.296875 L 127.703125 0.296875 L 127.703125 127.703125 L 0.296875 127.703125 Z M 0.296875 0.296875 " fill-opacity="1" fill-rule="nonzero"/></g></g></g></g></g></g><g clip-path="url(#95135aa5b6)"><g clip-path="url(#68ca59b9b5)"><path fill="#1a5dfc" d="M 164.699219 84.746094 C 163.742188 81.734375 160.53125 80.070312 157.527344 81.03125 L 150.394531 83.316406 L 150.394531 95.335938 L 161 91.941406 C 164 90.980469 165.660156 87.757812 164.699219 84.746094 Z M 164.699219 84.746094 " fill-opacity="1" fill-rule="nonzero"/></g></g><g clip-path="url(#1b73450341)"><g clip-path="url(#1af33cfb8c)"><path fill="#1a5dfc" d="M 102.421875 145.710938 L 102.421875 139.722656 L 102.402344 139.714844 C 102.402344 139.714844 102.414062 139.640625 102.421875 139.488281 L 102.421875 138.660156 C 102.351562 136.800781 101.800781 132.496094 98.6875 125.914062 C 97.105469 122.574219 94.148438 119.613281 92.683594 118.277344 L 101.667969 100.289062 C 103.351562 96.65625 101.789062 92.335938 98.175781 90.640625 C 94.5625 88.949219 93.347656 90.296875 91.152344 94.148438 L 76.542969 118.246094 L 76.46875 118.417969 L 73.964844 122.496094 L 79.175781 154.777344 L 61.386719 184.621094 L 105.878906 184.621094 L 114.601562 170.136719 C 118.484375 169.445312 127.085938 166.96875 136.40625 158.175781 C 137.324219 157.308594 137.976562 156.359375 138.765625 155.152344 L 111.464844 155.152344 C 106.363281 155.152344 102.421875 150.84375 102.421875 145.710938 Z M 102.421875 145.710938 " fill-opacity="1" fill-rule="nonzero"/></g></g><g clip-path="url(#33d08f250a)"><g clip-path="url(#e434beae22)"><path fill="#1a5dfc" d="M 158.289062 100.566406 L 150.394531 100.566406 L 150.394531 111.78125 L 158.289062 111.78125 C 161.359375 111.78125 163.851562 109.269531 163.851562 106.171875 C 163.851562 103.078125 161.359375 100.566406 158.289062 100.566406 Z M 158.289062 100.566406 " fill-opacity="1" fill-rule="nonzero"/></g></g><g clip-path="url(#79f7691d18)"><g clip-path="url(#f861edfccd)"><path fill="#1a5dfc" d="M 155.128906 114.023438 L 150.394531 114.023438 L 150.394531 125.234375 L 155.128906 125.234375 C 158.292969 125.234375 160.859375 122.722656 160.859375 119.628906 C 160.859375 116.535156 158.292969 114.023438 155.128906 114.023438 Z M 155.128906 114.023438 " fill-opacity="1" fill-rule="nonzero"/></g></g><g clip-path="url(#4a63b4d13e)"><g clip-path="url(#f742d0d907)"><path fill="#1a5dfc" d="M 152.21875 127.476562 L 150.394531 127.476562 L 150.394531 138.6875 L 152.21875 138.6875 C 155.339844 138.6875 157.871094 136.175781 157.871094 133.082031 C 157.871094 129.988281 155.339844 127.476562 152.21875 127.476562 Z M 152.21875 127.476562 " fill-opacity="1" fill-rule="nonzero"/></g></g><g clip-path="url(#f3ea82f5a0)"><g clip-path="url(#ecfa794e7f)"><path fill="#1a5dfc" d="M 144.625 140.625 L 109.066406 140.625 L 109.066406 75.152344 L 144.625 75.152344 Z M 126.660156 148.851562 C 125.328125 148.851562 124.25 147.757812 124.25 146.417969 C 124.25 145.074219 125.328125 143.988281 126.660156 143.988281 C 127.992188 143.988281 129.074219 145.078125 129.074219 146.417969 C 129.074219 147.761719 127.992188 148.851562 126.660156 148.851562 Z M 123.136719 70.855469 L 130.8125 70.855469 C 131.324219 70.855469 131.742188 71.273438 131.742188 71.789062 C 131.742188 72.304688 131.324219 72.722656 130.8125 72.722656 L 123.136719 72.722656 C 122.625 72.722656 122.210938 72.304688 122.210938 71.789062 C 122.210938 71.273438 122.625 70.855469 123.136719 70.855469 Z M 141.472656 68.800781 L 111.847656 68.800781 C 108.160156 68.800781 105.171875 71.8125 105.171875 75.527344 L 105.171875 145.785156 C 105.171875 149.503906 108.160156 152.519531 111.847656 152.519531 L 141.472656 152.519531 C 145.164062 152.519531 148.152344 149.503906 148.152344 145.785156 L 148.152344 75.527344 C 148.152344 71.8125 145.160156 68.800781 141.472656 68.800781 Z M 141.472656 68.800781 " fill-opacity="1" fill-rule="evenodd"/></g></g></svg>